<svg xmlns="http://www.w3.org/2000/svg" viewBox="0 -0.5 128 128" shape-rendering="crispEdges">
<metadata>Made with Pixels to Svg https://codepen.io/shshaw/pen/XbxvNj</metadata>
<path stroke="#06060c" d="M61 5h8M61 6h8M61 7h8M61 8h8M61 9h8M61 10h8M61 11h8M61 12h8M61 13h8M48 14h10M69 14h9M48 15h10M69 15h9M48 16h10M69 16h9M48 17h10M69 17h9M48 18h10M69 18h9M48 19h10M69 19h9M48 20h10M69 20h9M48 21h10M69 21h9M48 22h10M69 22h9M40 23h8M78 23h8M40 24h8M78 24h8M40 25h8M78 25h8M40 26h8M78 26h8M40 27h8M78 27h8M40 28h8M78 28h8M40 29h8M78 29h8M40 30h8M78 30h8M40 31h8M78 31h8M40 32h8M78 32h8M32 33h8M86 33h8M32 34h8M86 34h8M32 35h8M86 35h8M32 36h8M86 36h8M32 37h8M86 37h8M32 38h8M86 38h8M32 39h8M86 39h8M32 40h8M86 40h8M32 41h8M86 41h8M32 42h8M86 42h8M23 43h8M94 43h9M23 44h8M94 44h9M23 45h8M94 45h9M23 46h8M94 46h9M23 47h8M94 47h9M23 48h8M94 48h9M23 49h8M94 49h9M23 50h8M94 50h9M23 51h8M94 51h9M15 52h8M103 52h8M15 53h8M103 53h8M15 54h8M103 54h8M15 55h8M103 55h8M15 56h8M103 56h8M15 57h8M103 57h8M15 58h8M103 58h8M15 59h8M103 59h8M15 60h8M15 61h8M15 62h8M15 63h8M15 64h8M15 65h8M15 66h8M15 67h8M0 68h7M111 68h9M0 69h7M111 69h9M0 70h7M111 70h9M0 71h7M111 71h9M0 72h7M111 72h9M0 73h7M111 73h9M0 74h7M111 74h9M0 75h7M111 75h9M0 76h7M112 76h8M112 77h16M120 78h8M120 79h8M120 80h8M120 81h8M120 82h8M120 83h8M120 84h8M120 85h8M120 86h8M120 87h8M120 98h8M120 99h8M120 100h8M120 101h8M120 102h8M120 103h8M120 104h8M120 105h8M120 106h8M120 107h8M120 108h8M0 109h120M0 110h120M0 111h120M0 112h120M0 113h23M32 113h63M103 113h17M0 114h23M32 114h63M103 114h17M0 115h23M32 115h63M103 115h17M0 116h23M32 116h63M103 116h17M0 117h23M32 117h63M103 117h17M0 118h23M32 118h63M103 118h17" />
<path stroke="#9e310f" d="M58 14h3M58 15h3M58 16h3M58 17h3M58 18h3M58 19h3M58 20h3M58 21h3M58 22h3M78 33h8M78 34h8M78 35h8M78 36h8M78 37h8M78 38h8M78 39h8M78 40h8M78 41h8M78 42h8M31 43h9M58 43h11M86 43h8M31 44h9M58 44h11M86 44h8M31 45h9M58 45h11M86 45h8M31 46h9M58 46h11M86 46h8M31 47h9M58 47h11M86 47h8M31 48h9M58 48h11M86 48h8M31 49h9M58 49h11M86 49h8M31 50h9M58 50h11M86 50h8M31 51h9M58 51h11M86 51h8M23 52h8M58 52h11M94 52h9M23 53h8M58 53h11M94 53h9M23 54h8M58 54h11M94 54h9M23 55h8M58 55h11M94 55h9M23 56h8M58 56h11M94 56h9M23 57h8M58 57h11M94 57h9M23 58h8M58 58h11M94 58h9M23 59h8M58 59h11M94 59h9M58 60h11M103 60h8M58 61h11M103 61h8M58 62h11M103 62h8M58 63h11M103 63h8M58 64h11M103 64h8M58 65h11M103 65h8M58 66h11M103 66h8M58 67h11M103 67h8M58 68h11M58 69h11M58 70h11M58 71h11M58 72h11M58 73h11M58 74h11M58 75h11M58 76h11M58 83h11M58 84h11M58 85h11M58 86h11M58 87h11M58 88h11M112 88h8M58 89h11M112 89h8M58 90h11M112 90h8M58 91h11M112 91h8M58 92h11M112 92h8M58 93h11M112 93h8M58 94h11M112 94h8M58 95h11M112 95h8M58 96h11M112 96h8M58 97h11M112 97h8" />
<path stroke="#f4b00a" d="M61 14h8M61 15h8M61 16h8M61 17h8M61 18h8M61 19h8M61 20h8M61 21h8M61 22h8M69 23h9M69 24h9M69 25h9M69 26h9M69 27h9M69 28h9M69 29h9M69 30h9M69 31h9M69 32h9M103 68h8M103 69h8M103 70h8M103 71h8M103 72h8M103 73h8M103 74h8M103 75h8M103 76h8M58 77h11M111 78h9M112 79h8M112 80h8M112 81h8M112 82h8M112 83h8M112 84h8M112 85h8M112 86h8M112 87h8M58 98h11M111 98h9M112 99h8M111 100h9M111 101h9M111 102h9M111 103h9M112 104h8M111 105h9M111 106h9M111 107h9M111 108h9" />
<path stroke="#c7bbcd" d="M48 23h10M48 24h10M48 25h10M48 26h10M48 27h10M48 28h10M48 29h10M48 30h10M48 31h10M48 32h10M40 33h8M94 33h9M40 34h8M94 34h9M40 35h8M94 35h9M40 36h8M94 36h9M40 37h8M94 37h9M40 38h8M94 38h9M40 39h8M94 39h9M40 40h8M94 40h9M40 41h8M94 41h9M40 42h8M94 42h9M40 43h8M40 44h8M40 45h8M40 46h8M40 47h8M40 48h8M40 49h8M40 50h8M40 51h8M31 52h9M31 53h9M31 54h9M31 55h9M31 56h9M31 57h9M31 58h9M31 59h9M23 61h8M23 62h8M23 63h8M23 64h8M23 65h8M23 66h8M23 67h8M7 68h16M7 69h16M7 70h16M7 71h16M7 72h16M7 73h16M7 74h16M7 75h16M7 76h16M0 77h7M0 78h7M0 79h7M0 80h7M0 81h7M0 82h7M0 83h7M0 84h7M0 85h7M0 86h7M0 87h7M0 88h7M120 88h8M0 89h7M120 89h8M0 90h7M120 90h8M0 91h7M120 91h8M0 92h7M120 92h8M0 93h7M120 93h8M0 94h7M120 94h8M0 95h7M120 95h8M0 96h7M120 96h8M0 97h7M120 97h8M0 98h7M0 99h7M0 100h7M0 101h7M0 102h7M0 103h7M0 104h7M0 105h7M0 106h7M0 107h7M0 108h7M120 109h8M120 110h8M120 111h8M120 112h8M23 113h9M95 113h8M120 113h8M23 114h9M95 114h8M120 114h8M23 115h9M95 115h8M120 115h8M23 116h9M95 116h8M120 116h8M23 117h9M95 117h8M120 117h8M23 118h9M95 118h8M120 118h8" />
<path stroke="#fce81e" d="M58 23h11M58 24h11M58 25h11M58 26h11M58 27h11M58 28h11M58 29h11M58 30h11M58 31h11M58 32h11M48 33h30M48 34h30M48 35h30M48 36h30M48 37h30M48 38h30M48 39h30M48 40h30M48 41h30M48 42h30M48 43h10M69 43h17M48 44h10M69 44h17M48 45h10M69 45h17M48 46h10M69 46h17M48 47h10M69 47h17M48 48h10M69 48h17M48 49h10M69 49h17M48 50h10M69 50h17M48 51h10M69 51h17M40 52h18M69 52h25M40 53h18M69 53h25M40 54h18M69 54h25M40 55h18M69 55h25M40 56h18M69 56h25M40 57h18M69 57h25M40 58h18M69 58h25M40 59h18M69 59h25M31 60h27M69 60h34M31 61h27M69 61h34M31 62h27M69 62h34M31 63h27M69 63h34M31 64h27M69 64h34M31 65h27M69 65h34M31 66h27M69 66h34M31 67h27M69 67h34M23 68h35M69 68h34M23 69h35M69 69h34M23 70h35M69 70h34M23 71h35M69 71h34M23 72h35M69 72h34M23 73h35M69 73h34M23 74h35M69 74h34M23 75h35M69 75h34M23 76h35M69 76h34M7 77h51M69 77h42M7 78h104M7 79h104M7 80h104M7 81h104M7 82h104M7 83h51M69 83h42M7 84h51M69 84h42M7 85h51M69 85h42M7 86h51M69 86h42M7 87h51M69 87h42M7 88h51M69 88h42M7 89h51M69 89h42M7 90h51M69 90h42M7 91h51M69 91h42M7 92h51M69 92h42M7 93h51M69 93h42M7 94h51M69 94h42M7 95h51M69 95h42M7 96h51M69 96h42M7 97h51M69 97h42M7 98h51M69 98h42M7 99h104M7 100h104M7 101h104M7 102h104M7 103h104M7 104h104M7 105h104M7 106h104M7 107h104M7 108h104" />
<path stroke="rgba(139,139,139,0.043137254901960784)" d="M86 23h1" />
<path stroke="rgba(128,128,128,0.06274509803921569)" d="M86 24h1M86 25h1M86 26h1M86 27h1" />
<path stroke="rgba(112,112,112,0.06274509803921569)" d="M86 28h1M86 29h1" />
<path stroke="rgba(96,112,112,0.06274509803921569)" d="M86 30h1" />
<path stroke="rgba(96,96,96,0.06274509803921569)" d="M86 31h1" />
<path stroke="rgba(80,80,80,0.06274509803921569)" d="M86 32h1" />
<path stroke="rgba(6,6,6,0.17254901960784313)" d="M31 33h1M31 34h1M31 36h1M31 37h1M31 38h1M31 39h1M31 40h1M31 41h1" />
<path stroke="rgba(6,0,6,0.17254901960784313)" d="M31 35h1" />
<path stroke="rgba(17,12,6,0.17254901960784313)" d="M31 42h1" />
<path stroke="rgba(0,0,0,0.11372549019607843)" d="M111 52h1M111 54h1M111 55h1M111 56h1M111 57h1M111 58h1" />
<path stroke="rgba(0,9,0,0.11372549019607843)" d="M111 53h1" />
<path stroke="rgba(0,0,9,0.11372549019607843)" d="M111 59h1" />
<path stroke="#c9bdc7" d="M23 60h1" />
<path stroke="#c9bdc6" d="M24 60h2" />
<path stroke="#c9bdc5" d="M26 60h2" />
<path stroke="#cabdc4" d="M28 60h2" />
<path stroke="#ccbfbd" d="M30 60h1" />
<path stroke="rgba(123,35,0,0.11372549019607843)" d="M111 60h1" />
<path stroke="rgba(158,53,0,0.11372549019607843)" d="M111 61h1M111 62h1M111 63h1M111 64h1M111 65h1M111 66h1M111 67h1" />
<path stroke="#07060c" d="M111 76h1" />
<path stroke="#0b080c" d="M111 77h1" />
<path stroke="#f4b10a" d="M111 79h1M111 80h1M111 81h1M111 82h1M111 83h1M111 84h1M111 85h1M111 86h1M111 87h1" />
<path stroke="#a9420f" d="M111 88h1" />
<path stroke="#a1360f" d="M111 89h1" />
<path stroke="#a2360f" d="M111 90h1M111 91h1" />
<path stroke="#a2370f" d="M111 92h1M111 93h1M111 94h1M111 95h1M111 96h1" />
<path stroke="#a43a0f" d="M111 97h1" />
<path stroke="#f5b60c" d="M111 99h1" />
<path stroke="#f4b10b" d="M111 104h1" />
</svg>